<svg width="72" height="72" viewBox="0 0 72 72" fill="none" xmlns="http://www.w3.org/2000/svg">
<path d="M0 47.3846C0 35.2217 1.632 26.5339 4.896 21.3213C8.352 15.9155 13.728 11.4751 21.024 8L29.376 19.2941C23.424 22.5762 19.584 25.6652 17.856 28.5611C16.32 31.264 15.552 35.4148 15.552 41.0136H30.528V72H0V47.3846ZM41.76 47.3846C41.76 35.2217 43.392 26.5339 46.656 21.3213C50.112 15.9155 55.392 11.4751 62.496 8L70.848 19.2941C64.896 22.5762 61.056 25.6652 59.328 28.5611C57.792 31.264 57.024 35.4148 57.024 41.0136H72V72H41.76V47.3846Z" fill="#FFA300"/>
</svg>
